<svg width="24" height="24" viewBox="0 0 24 24" fill="none" xmlns="http://www.w3.org/2000/svg">
<g id="start icon">
<path id="Vector" d="M23.8222 7.88571C23.4667 7.62857 22.7556 7.28571 21.3333 6.94286C20.8889 6.85714 20.4444 6.77143 19.9111 6.68571C19.2 6.6 18.4889 6.51429 17.5111 6.42857H17.4222C17.2444 6 17.0667 5.57143 16.8889 5.14286C16.8 4.88571 16.7111 4.62857 16.5333 4.37143V4.28571C16.1778 3.34286 15.7333 2.4 15.0222 1.54286C14.1333 0.514286 13.0667 0 12 0C10.9333 0 9.86667 0.514286 9.06667 1.45714C8.26667 2.31429 7.91111 3.34286 7.46667 4.28571V4.37143C7.37778 4.62857 7.2 4.88571 7.11111 5.14286C6.93333 5.57143 6.75556 6 6.57778 6.42857H6.48889C5.6 6.51429 4.8 6.6 4.08889 6.68571C3.55556 6.77143 3.02222 6.85714 2.66667 6.94286C1.24444 7.28571 0.533333 7.62857 0.177778 7.88571C0.0888889 7.97143 0 8.14286 0 8.31429L0.0888889 9.17143C0.266667 10.4571 0.444444 11.9143 0.8 13.4571C1.06667 14.6571 1.33333 15.8571 1.77778 16.9714C1.95556 17.4 2.13333 17.8286 2.31111 18.2571C3.73333 21 6.31111 23.0571 9.51111 23.7429C10.3111 23.9143 11.1111 24 12 24C12.8 24 13.6889 23.9143 14.4889 23.7429C17.6889 23.0571 20.3556 20.9143 21.7778 18.0857C21.9556 17.7429 22.1333 17.4 22.2222 17.0571C23.2 14.4857 23.5556 11.7429 23.9111 9.51429L24 8.31429C24 8.14286 23.9111 7.97143 23.8222 7.88571ZM12 6.17143C10.8444 6.17143 9.86667 6.17143 8.97778 6.25714C9.06667 6.17143 9.06667 6 9.15556 5.91429C9.24444 5.65714 9.42222 5.4 9.51111 5.14286C9.77778 4.54286 10.0444 3.94286 10.3111 3.42857C10.4889 3.17143 10.5778 3 10.7556 2.74286C11.0222 2.48571 11.4667 2.05714 12.0889 2.05714C12.7111 2.05714 13.1556 2.48571 13.4222 2.74286C13.6 2.91429 13.7778 3.17143 13.8667 3.42857C14.1333 3.94286 14.4 4.54286 14.6667 5.14286C14.7556 5.4 14.8444 5.65714 15.0222 5.91429C15.1111 6 15.1111 6.17143 15.2 6.25714C14.1333 6.25714 13.1556 6.17143 12 6.17143Z" fill="url(#paint0_linear_6552_58118)"/>
</g>
<defs>
<linearGradient id="paint0_linear_6552_58118" x1="12" y1="0" x2="12" y2="24" gradientUnits="userSpaceOnUse">
<stop stop-color="#009955"/>
<stop offset="0.0001" stop-color="#95D601"/>
<stop offset="1" stop-color="#009856"/>
</linearGradient>
</defs>
</svg>
