<svg width="65" height="64" viewBox="0 0 65 64" fill="none" xmlns="http://www.w3.org/2000/svg">
<g id="Superego/03 chart">
<g clip-path="url(#clip0_6079_368187)">
<rect x="0.333008" width="64" height="64" rx="32" fill="#018A08" fill-opacity="0.16"/>
<path id="Vector" d="M59 93.3332V26.6665C59 22.2482 55.4183 18.6665 51 18.6665C46.5817 18.6665 43 22.2482 43 26.6665L43 93.3332C43 97.7514 46.5817 101.333 51 101.333C55.4183 101.333 59 97.7515 59 93.3332Z" fill="#013C04"/>
<path id="Vector_2" d="M21.666 72L21.666 40C21.666 35.5817 18.0843 32 13.666 32C9.24774 32 5.66602 35.5817 5.66602 40L5.66602 72C5.66602 76.4183 9.24774 80 13.666 80C18.0843 80 21.666 76.4183 21.666 72Z" fill="#013C04"/>
<path id="Vector_3" d="M40.333 82.6667V8C40.333 3.58172 36.7513 0 32.333 0C27.9147 0 24.333 3.58171 24.333 7.99999L24.333 82.6667C24.333 87.0849 27.9147 90.6667 32.333 90.6667C36.7513 90.6667 40.333 87.085 40.333 82.6667Z" fill="#01C124"/>
</g>
</g>
<defs>
<clipPath id="clip0_6079_368187">
<rect x="0.333008" width="64" height="64" rx="32" fill="white"/>
</clipPath>
</defs>
</svg>
