<svg width="65" height="64" viewBox="0 0 65 64" fill="none" xmlns="http://www.w3.org/2000/svg">
<g id="Superego/38 control">
<g clip-path="url(#clip0_6079_368194)">
<rect x="0.666016" width="64" height="64" rx="32" fill="#018A08" fill-opacity="0.16"/>
<path id="Vector" fill-rule="evenodd" clip-rule="evenodd" d="M64.666 45.3332L0.666015 45.3332L0.666016 50.6665L64.666 50.6665L64.666 45.3332Z" fill="#01C124"/>
<path id="Vector_2" fill-rule="evenodd" clip-rule="evenodd" d="M64.666 29.3332L0.666015 29.3332L0.666016 34.6665L64.666 34.6665L64.666 29.3332Z" fill="#013C04"/>
<path id="Vector_3" fill-rule="evenodd" clip-rule="evenodd" d="M64.666 13.3332L0.666015 13.3332L0.666016 18.6665L64.666 18.6665L64.666 13.3332Z" fill="#01C124"/>
<rect id="Vector_4" width="10.6667" height="10.6667" rx="5.33333" transform="matrix(4.37114e-08 1 1 -4.37114e-08 43.333 10.6665)" fill="#013C04"/>
<rect id="Vector_5" width="10.6667" height="10.6667" rx="5.33333" transform="matrix(4.37114e-08 1 1 -4.37114e-08 27.333 26.6665)" fill="#01C124"/>
<rect id="Vector_6" width="10.6667" height="10.6667" rx="5.33333" transform="matrix(4.37114e-08 1 1 -4.37114e-08 11.333 42.6665)" fill="#013C04"/>
</g>
</g>
<defs>
<clipPath id="clip0_6079_368194">
<rect x="0.666016" width="64" height="64" rx="32" fill="white"/>
</clipPath>
</defs>
</svg>
