<svg width="32" height="33" viewBox="0 0 32 33" fill="none" xmlns="http://www.w3.org/2000/svg">
<g id="icon instagram">
<path id="Vector" fill-rule="evenodd" clip-rule="evenodd" d="M16 4.75586C12.7408 4.75586 12.3328 4.76946 11.0528 4.82786C9.7752 4.88626 8.9024 5.08946 8.1392 5.38626C7.3392 5.68706 6.6136 6.15906 6.0136 6.77026C5.40338 7.36957 4.93109 8.09466 4.6296 8.89506C4.3344 9.65826 4.1304 10.5319 4.072 11.8095C4.0144 13.0887 4 13.4959 4 16.7559C4 20.0159 4.0136 20.4231 4.072 21.7031C4.1304 22.9807 4.3336 23.8535 4.6304 24.6167C4.9312 25.4167 5.4032 26.1423 6.0144 26.7423C6.61372 27.3525 7.33881 27.8247 8.1392 28.1263C8.9024 28.4223 9.7752 28.6255 11.0528 28.6839C12.3328 28.7423 12.7408 28.7559 16 28.7559C19.2592 28.7559 19.6672 28.7423 20.9472 28.6839C22.2248 28.6255 23.0976 28.4223 23.8608 28.1255C24.6608 27.8247 25.3864 27.3527 25.9864 26.7415C26.5966 26.1422 27.0689 25.4171 27.3704 24.6167C27.6664 23.8535 27.8696 22.9807 27.928 21.7031C27.9864 20.4231 28 20.0151 28 16.7559C28 13.4967 27.9864 13.0887 27.928 11.8087C27.8696 10.5311 27.6664 9.65826 27.3696 8.89506C27.0683 8.09431 26.596 7.36892 25.9856 6.76946C25.3863 6.15924 24.6612 5.68695 23.8608 5.38546C23.0976 5.09026 22.224 4.88626 20.9464 4.82786C19.6672 4.77026 19.26 4.75586 16 4.75586ZM16 6.91826C19.204 6.91826 19.584 6.93026 20.8496 6.98786C22.0192 7.04146 22.6544 7.23586 23.0776 7.40146C23.6376 7.61826 24.0376 7.87906 24.4576 8.29826C24.8776 8.71826 25.1376 9.11826 25.3544 9.67826C25.5192 10.1015 25.7144 10.7367 25.768 11.9063C25.8256 13.1719 25.8376 13.5519 25.8376 16.7559C25.8376 19.9599 25.8256 20.3399 25.768 21.6055C25.7144 22.7751 25.52 23.4103 25.3544 23.8335C25.1623 24.3547 24.8559 24.8263 24.4576 25.2135C24.0705 25.6118 23.5989 25.9183 23.0776 26.1103C22.6544 26.2751 22.0192 26.4703 20.8496 26.5239C19.584 26.5815 19.2048 26.5935 16 26.5935C12.7952 26.5935 12.416 26.5815 11.1504 26.5239C9.9808 26.4703 9.3456 26.2759 8.9224 26.1103C8.40116 25.9182 7.92961 25.6118 7.5424 25.2135C7.14414 24.8262 6.8377 24.3547 6.6456 23.8335C6.4808 23.4103 6.2856 22.7751 6.232 21.6055C6.1744 20.3399 6.1624 19.9599 6.1624 16.7559C6.1624 13.5519 6.1744 13.1719 6.232 11.9063C6.2856 10.7367 6.48 10.1015 6.6456 9.67826C6.8624 9.11826 7.1232 8.71826 7.5424 8.29826C7.92955 7.8999 8.40113 7.59344 8.9224 7.40146C9.3456 7.23666 9.9808 7.04146 11.1504 6.98786C12.416 6.93026 12.796 6.91826 16 6.91826Z" fill="#013C04"/>
<path id="Vector_2" fill-rule="evenodd" clip-rule="evenodd" d="M16 20.7596C15.4742 20.7596 14.9536 20.656 14.4678 20.4548C13.982 20.2536 13.5406 19.9586 13.1688 19.5868C12.797 19.215 12.502 18.7736 12.3008 18.2878C12.0996 17.8021 11.996 17.2814 11.996 16.7556C11.996 16.2298 12.0996 15.7091 12.3008 15.2233C12.502 14.7375 12.797 14.2961 13.1688 13.9243C13.5406 13.5525 13.982 13.2576 14.4678 13.0564C14.9536 12.8551 15.4742 12.7516 16 12.7516C17.062 12.7516 18.0804 13.1734 18.8313 13.9243C19.5822 14.6752 20.004 15.6937 20.004 16.7556C20.004 17.8175 19.5822 18.8359 18.8313 19.5868C18.0804 20.3377 17.062 20.7596 16 20.7596ZM16 10.5876C14.3642 10.5876 12.7953 11.2374 11.6386 12.3941C10.4819 13.5509 9.83203 15.1197 9.83203 16.7556C9.83203 18.3914 10.4819 19.9603 11.6386 21.117C12.7953 22.2737 14.3642 22.9236 16 22.9236C17.6359 22.9236 19.2047 22.2737 20.3615 21.117C21.5182 19.9603 22.168 18.3914 22.168 16.7556C22.168 15.1197 21.5182 13.5509 20.3615 12.3941C19.2047 11.2374 17.6359 10.5876 16 10.5876ZM23.9624 10.4756C23.9624 10.8623 23.8088 11.2331 23.5354 11.5065C23.262 11.78 22.8911 11.9336 22.5044 11.9336C22.1177 11.9336 21.7469 11.78 21.4735 11.5065C21.2 11.2331 21.0464 10.8623 21.0464 10.4756C21.0464 10.0889 21.2 9.71804 21.4735 9.44462C21.7469 9.17119 22.1177 9.01758 22.5044 9.01758C22.8911 9.01758 23.262 9.17119 23.5354 9.44462C23.8088 9.71804 23.9624 10.0889 23.9624 10.4756Z" fill="#013C04"/>
</g>
</svg>
