<svg width="24" height="25" viewBox="0 0 24 25" fill="none" xmlns="http://www.w3.org/2000/svg">
<path id="Vector" d="M24 2.52057V22.9912C24 23.4592 23.8141 23.908 23.4831 24.239C23.1522 24.5699 22.7033 24.7559 22.2353 24.7559H1.76471C1.29668 24.7559 0.847817 24.5699 0.51687 24.239C0.185924 23.908 0 23.4592 0 22.9912L0 2.52057C0 2.05254 0.185924 1.60368 0.51687 1.27273C0.847817 0.941783 1.29668 0.755859 1.76471 0.755859L22.2353 0.755859C22.7033 0.755859 23.1522 0.941783 23.4831 1.27273C23.8141 1.60368 24 2.05254 24 2.52057ZM7.05882 9.93233H3.52941V21.2264H7.05882V9.93233ZM7.37647 6.04998C7.37833 5.78301 7.32759 5.51828 7.22714 5.27092C7.12669 5.02356 6.9785 4.79841 6.79103 4.60832C6.60357 4.41823 6.38049 4.26693 6.13455 4.16306C5.88861 4.05918 5.62462 4.00477 5.35765 4.00292H5.29412C4.7512 4.00292 4.23053 4.21859 3.84663 4.60249C3.46273 4.98639 3.24706 5.50706 3.24706 6.04998C3.24706 6.59289 3.46273 7.11357 3.84663 7.49747C4.23053 7.88136 4.7512 8.09704 5.29412 8.09704C5.56111 8.1036 5.82678 8.0575 6.07594 7.96136C6.32511 7.86522 6.55289 7.72092 6.74627 7.53672C6.93965 7.35252 7.09484 7.13202 7.20297 6.88782C7.3111 6.64361 7.37006 6.3805 7.37647 6.11351V6.04998ZM20.4706 14.3653C20.4706 10.97 18.3106 9.64998 16.1647 9.64998C15.4621 9.6148 14.7626 9.76444 14.1358 10.084C13.5091 10.4036 12.9771 10.8818 12.5929 11.4712H12.4941V9.93233H9.17647V21.2264H12.7059V15.2194C12.6549 14.6042 12.8487 13.9937 13.2452 13.5205C13.6417 13.0473 14.2089 12.7497 14.8235 12.6923H14.9576C16.08 12.6923 16.9129 13.3982 16.9129 15.177V21.2264H20.4424L20.4706 14.3653Z" fill="#013C04"/>
</svg>
