<svg width="64" height="64" viewBox="0 0 64 64" fill="none" xmlns="http://www.w3.org/2000/svg">
<g id="Superego/21 ekg machine">
<g clip-path="url(#clip0_6079_368208)">
<rect width="64" height="64" rx="32" fill="#018A08" fill-opacity="0.16"/>
<rect id="Vector" width="64" height="48" fill="#01C124"/>
<path id="Vector_2" fill-rule="evenodd" clip-rule="evenodd" d="M32.6773 5.42061C33.8496 5.72831 34.667 6.78789 34.667 7.99992V33.8592L37.2816 29.9373C39.7545 26.2279 43.9176 23.9999 48.3756 23.9999H66.667V29.3333H48.3756C45.7008 29.3333 43.2029 30.6701 41.7192 32.8957L34.2191 44.1458C33.5673 45.1235 32.3523 45.5594 31.2276 45.2188C30.1029 44.8783 29.3337 43.8417 29.3337 42.6666V18.16L26.8599 22.5479C24.4966 26.74 20.0576 29.3333 15.2452 29.3333H-5.33301L-5.33301 23.9999H15.2452C18.1327 23.9999 20.796 22.444 22.214 19.9287L29.6774 6.69033C30.2726 5.63452 31.505 5.11292 32.6773 5.42061Z" fill="#013C04"/>
<rect id="Vector_3" x="16" y="50.6665" width="5.33333" height="5.33333" rx="2.66667" fill="#01C124"/>
<rect id="Vector_4" x="29.333" y="53.3335" width="5.33333" height="5.33334" rx="2.66667" fill="#01C124"/>
<rect id="Vector_5" x="42.667" y="50.6665" width="5.33333" height="5.33333" rx="2.66667" fill="#01C124"/>
</g>
</g>
<defs>
<clipPath id="clip0_6079_368208">
<rect width="64" height="64" rx="32" fill="white"/>
</clipPath>
</defs>
</svg>
