<svg width="24" height="24" viewBox="0 0 24 24" fill="none" xmlns="http://www.w3.org/2000/svg">
<g id="XMLID 16">
<path id="XMLID 20" d="M12 24C18.6274 24 24 18.6274 24 12C24 5.37259 18.6274 0 12 0C5.37258 0 0 5.37259 0 12C0 18.6274 5.37258 24 12 24Z" fill="#00B0FF"/>
<g id="XMLID 17">
<path id="XMLID 19" d="M19.3657 10.5802C19.2719 8.30343 17.3969 6.50879 15.1067 6.50879C13.8344 6.50879 12.6826 7.07129 11.9058 7.95522C11.129 7.07129 9.97726 6.50879 8.70494 6.50879C6.45494 6.50879 4.60672 8.24986 4.44601 10.4597C4.44601 10.5133 4.43262 10.5668 4.43262 10.6204V15.4418C4.43262 16.0311 4.91476 16.5133 5.50405 16.5133H5.53083C6.12012 16.5133 6.60226 16.0311 6.60226 15.4418V10.7811C6.60226 9.61593 7.55315 8.66504 8.71833 8.66504C9.88351 8.66504 10.8344 9.61593 10.8344 10.7811V14.7186C10.8344 15.3079 11.3165 15.79 11.9058 15.79H11.9326C12.5219 15.79 13.0041 15.3079 13.0041 14.7186V10.7811C13.0041 9.61593 13.9549 8.66504 15.1201 8.66504C16.2853 8.66504 17.2362 9.61593 17.2362 10.7811V15.4552C17.2362 16.0445 17.7049 16.5133 18.2942 16.5133H18.321C18.9103 16.5133 19.3791 16.0445 19.3791 15.4552V10.6874C19.3657 10.6472 19.3657 10.607 19.3657 10.5802Z" fill="white"/>
<path id="XMLID 18" d="M15.3214 16.9151C15.2678 16.8347 15.1205 16.9955 15.1205 16.9955C14.5312 17.6385 13.2991 18.0538 12.0268 18.0538C10.7544 18.0538 9.53569 17.6385 8.93302 16.9955C8.93302 16.9955 8.7723 16.8347 8.73212 16.9151C8.66516 17.0089 8.75891 17.1562 8.75891 17.1562C9.5223 18.2548 10.6741 18.7371 12.0268 18.7371C13.3794 18.7371 14.5312 18.2414 15.2946 17.1562C15.2946 17.1696 15.3884 17.0223 15.3214 16.9151Z" fill="white"/>
</g>
</g>
</svg>
