<svg width="64" height="64" viewBox="0 0 64 64" fill="none" xmlns="http://www.w3.org/2000/svg">
<g id="Superego/14 performance">
<g clip-path="url(#clip0_6079_368201)">
<rect width="64" height="64" rx="32" fill="#018A08" fill-opacity="0.16"/>
<circle id="Vector" cx="32.5" cy="32" r="30.5" stroke="#018A08" stroke-opacity="0.16" stroke-width="3"/>
<path id="Vector_2" fill-rule="evenodd" clip-rule="evenodd" d="M32 10.6667C28.2552 10.6667 24.5764 11.6524 21.3333 13.5248C18.0903 15.3972 15.3972 18.0903 13.5248 21.3333C11.6524 24.5764 10.6667 28.2552 10.6667 32C10.6667 35.7448 11.6524 39.4236 13.5248 42.6667L4.28719 48C1.4786 43.1354 0 37.6172 0 32C0 26.3828 1.4786 20.8646 4.28719 16C7.09577 11.1354 11.1354 7.09577 16 4.28719C20.8646 1.4786 26.3828 0 32 0C37.6172 0 43.1354 1.4786 48 4.28719C52.8646 7.09577 56.9042 11.1354 59.7128 16C62.5214 20.8646 64 26.3828 64 32C64 37.6172 62.5214 43.1354 59.7128 48L50.4752 42.6667C52.3476 39.4236 53.3333 35.7448 53.3333 32C53.3333 28.2552 52.3476 24.5764 50.4752 21.3333C48.6028 18.0903 45.9097 15.3972 42.6667 13.5248C39.4236 11.6524 35.7448 10.6667 32 10.6667Z" fill="#01C124"/>
<path id="Vector_3" d="M31.9997 18.6665L42.6663 63.9998H21.333L31.9997 18.6665Z" fill="#013C04"/>
</g>
</g>
<defs>
<clipPath id="clip0_6079_368201">
<rect width="64" height="64" rx="32" fill="white"/>
</clipPath>
</defs>
</svg>
